<?xml version="1.0" encoding="UTF-8" standalone="no"?>
<!DOCTYPE svg PUBLIC "-//W3C//DTD SVG 1.1//EN" "http://www.w3.org/Graphics/SVG/1.1/DTD/svg11.dtd">
<svg width="100%" height="100%" viewBox="0 0 4000 1000" version="1.1" xmlns="http://www.w3.org/2000/svg" xmlns:xlink="http://www.w3.org/1999/xlink" xml:space="preserve" xmlns:serif="http://www.serif.com/" style="fill-rule:evenodd;clip-rule:evenodd;stroke-linejoin:round;stroke-miterlimit:2;">
    <g transform="matrix(1,0,0,1,-217.933,-4.88823)">
        <g transform="matrix(2.42898,0,0,2.42898,1461.57,1432.67)">
            <g transform="matrix(1,0,0,1,-512,-512)">
                <rect x="100" y="0" width="50" height="50" style="fill:rgb(91,192,235);"/>
                <rect x="0" y="50" width="50" height="50" style="fill:rgb(91,192,235);"/>
                <rect x="50" y="50" width="50" height="50" style="fill:rgb(91,192,235);"/>
                <rect x="150" y="50" width="50" height="50" style="fill:rgb(91,192,235);"/>
                <rect x="200" y="50" width="50" height="50" style="fill:rgb(91,192,235);"/>
                <rect x="100" y="100" width="50" height="50" style="fill:rgb(91,192,235);"/>
                <rect x="50" y="150" width="50" height="50" style="fill:rgb(91,192,235);"/>
                <rect x="150" y="150" width="50" height="50" style="fill:rgb(91,192,235);"/>
                <rect x="0" y="200" width="50" height="50" style="fill:rgb(91,192,235);"/>
                <rect x="100" y="200" width="50" height="50" style="fill:rgb(91,192,235);"/>
                <rect x="200" y="200" width="50" height="50" style="fill:rgb(91,192,235);"/>
            </g>
        </g>
        <g transform="matrix(2.42898,0,0,2.42898,2184.42,1432.67)">
            <g transform="matrix(1,0,0,1,-512,-512)">
                <rect x="0" y="0" width="50" height="50" style="fill:rgb(155,197,61);"/>
                <rect x="50" y="0" width="50" height="50" style="fill:rgb(155,197,61);"/>
                <rect x="150" y="0" width="50" height="50" style="fill:rgb(155,197,61);"/>
                <rect x="200" y="0" width="50" height="50" style="fill:rgb(155,197,61);"/>
                <rect x="50" y="50" width="50" height="50" style="fill:rgb(155,197,61);"/>
                <rect x="100" y="50" width="50" height="50" style="fill:rgb(155,197,61);"/>
                <rect x="150" y="50" width="50" height="50" style="fill:rgb(155,197,61);"/>
                <rect x="0" y="100" width="50" height="50" style="fill:rgb(155,197,61);"/>
                <rect x="100" y="100" width="50" height="50" style="fill:rgb(155,197,61);"/>
                <rect x="200" y="100" width="50" height="50" style="fill:rgb(155,197,61);"/>
                <rect x="0" y="150" width="50" height="50" style="fill:rgb(155,197,61);"/>
                <rect x="200" y="150" width="50" height="50" style="fill:rgb(155,197,61);"/>
                <rect x="0" y="200" width="50" height="50" style="fill:rgb(155,197,61);"/>
                <rect x="200" y="200" width="50" height="50" style="fill:rgb(155,197,61);"/>
            </g>
        </g>
        <g transform="matrix(2.42898,0,0,2.42898,2908.19,1432.67)">
            <g transform="matrix(1,0,0,1,-512,-512)">
                <rect x="100" y="0" width="50" height="50" style="fill:rgb(253,231,76);"/>
                <rect x="0" y="50" width="50" height="50" style="fill:rgb(253,231,76);"/>
                <rect x="50" y="50" width="50" height="50" style="fill:rgb(253,231,76);"/>
                <rect x="100" y="50" width="50" height="50" style="fill:rgb(253,231,76);"/>
                <rect x="150" y="50" width="50" height="50" style="fill:rgb(253,231,76);"/>
                <rect x="200" y="50" width="50" height="50" style="fill:rgb(253,231,76);"/>
                <rect x="100" y="100" width="50" height="50" style="fill:rgb(253,231,76);"/>
                <rect x="0" y="150" width="50" height="50" style="fill:rgb(253,231,76);"/>
                <rect x="100" y="150" width="50" height="50" style="fill:rgb(253,231,76);"/>
                <rect x="200" y="150" width="50" height="50" style="fill:rgb(253,231,76);"/>
                <rect x="100" y="200" width="50" height="50" style="fill:rgb(253,231,76);"/>
            </g>
        </g>
        <g transform="matrix(2.42898,0,0,2.42898,3631.31,1432.67)">
            <g transform="matrix(1,0,0,1,-512,-512)">
                <rect x="100" y="0" width="50" height="50" style="fill:rgb(229,89,52);"/>
                <rect x="0" y="50" width="50" height="50" style="fill:rgb(229,89,52);"/>
                <rect x="50" y="50" width="50" height="50" style="fill:rgb(229,89,52);"/>
                <rect x="150" y="50" width="50" height="50" style="fill:rgb(229,89,52);"/>
                <rect x="200" y="50" width="50" height="50" style="fill:rgb(229,89,52);"/>
                <rect x="100" y="100" width="50" height="50" style="fill:rgb(229,89,52);"/>
                <rect x="50" y="150" width="50" height="50" style="fill:rgb(229,89,52);"/>
                <rect x="150" y="150" width="50" height="50" style="fill:rgb(229,89,52);"/>
                <rect x="0" y="200" width="50" height="50" style="fill:rgb(229,89,52);"/>
                <rect x="100" y="200" width="50" height="50" style="fill:rgb(229,89,52);"/>
                <rect x="200" y="200" width="50" height="50" style="fill:rgb(229,89,52);"/>
            </g>
        </g>
        <g transform="matrix(2.42898,0,0,2.42898,4353.79,1432.71)">
            <g transform="matrix(1,0,0,1,-512,-512)">
                <rect x="50" y="0" width="50" height="50" style="fill:rgb(250,121,33);"/>
                <rect x="150" y="0" width="50" height="50" style="fill:rgb(250,121,33);"/>
                <rect x="0" y="50" width="50" height="50" style="fill:rgb(250,121,33);"/>
                <rect x="200" y="50" width="50" height="50" style="fill:rgb(250,121,33);"/>
                <rect x="0" y="100" width="50" height="50" style="fill:rgb(250,121,33);"/>
                <rect x="100" y="100" width="50" height="50" style="fill:rgb(250,121,33);"/>
                <rect x="200" y="100" width="50" height="50" style="fill:rgb(250,121,33);"/>
                <rect x="0" y="150" width="50" height="50" style="fill:rgb(250,121,33);"/>
                <rect x="200" y="150" width="50" height="50" style="fill:rgb(250,121,33);"/>
                <rect x="0" y="200" width="50" height="50" style="fill:rgb(250,121,33);"/>
                <rect x="50" y="200" width="50" height="50" style="fill:rgb(250,121,33);"/>
                <rect x="150" y="200" width="50" height="50" style="fill:rgb(250,121,33);"/>
                <rect x="200" y="200" width="50" height="50" style="fill:rgb(250,121,33);"/>
            </g>
        </g>
    </g>
</svg>
