<?xml version="1.0" encoding="UTF-8" standalone="no"?>
<!DOCTYPE svg PUBLIC "-//W3C//DTD SVG 1.1//EN" "http://www.w3.org/Graphics/SVG/1.1/DTD/svg11.dtd">
<svg width="100%" height="100%" viewBox="0 0 4000 2000" version="1.1" xmlns="http://www.w3.org/2000/svg" xmlns:xlink="http://www.w3.org/1999/xlink" xml:space="preserve" xmlns:serif="http://www.serif.com/" style="fill-rule:evenodd;clip-rule:evenodd;stroke-linejoin:round;stroke-miterlimit:2;">
    <g transform="matrix(1.55603,0,0,1.55603,-639.922,-710.091)">
        <g transform="matrix(1,0,0,1,52.7497,0)">
            <path d="M611.43,1558.88C560.033,1558.88 515.399,1550.31 477.527,1533.18C439.656,1516.04 410.35,1491.47 389.611,1459.46C368.872,1427.45 358.502,1390.26 358.502,1347.88C358.502,1307.3 367.519,1271.01 385.553,1239C403.587,1206.99 431.54,1180.16 469.412,1158.52C507.283,1136.88 555.074,1121.55 612.783,1112.53L853.538,1073.31L853.538,1208.56L646.597,1243.73C611.43,1250.04 585.281,1261.31 568.148,1277.54C551.016,1293.77 542.45,1314.96 542.45,1341.11C542.45,1366.36 552.143,1386.42 571.53,1401.3C590.916,1416.18 615.037,1423.62 643.892,1423.62C680.861,1423.62 713.548,1415.73 741.952,1399.95C770.356,1384.17 792.447,1362.3 808.227,1334.35C824.007,1306.4 831.897,1275.74 831.897,1242.38L831.897,1053.02C831.897,1021.46 819.498,995.085 794.702,973.894C769.905,952.704 737.218,942.109 696.641,942.109C658.77,942.109 625.181,952.254 595.876,972.542C566.57,992.83 545.155,1019.66 531.629,1053.02L386.906,982.686C401.333,943.913 424.101,910.324 455.21,881.921C486.319,853.517 523.063,831.2 565.443,814.969C607.823,798.738 653.81,790.623 703.404,790.623C763.818,790.623 817.019,801.669 863.006,823.761C908.993,845.852 944.835,876.51 970.534,915.735C996.233,954.959 1009.08,1000.72 1009.08,1053.02L1009.08,1542.64L841.365,1542.64L841.365,1416.86L879.236,1414.15C860.301,1445.71 837.758,1472.09 811.609,1493.28C785.459,1514.47 755.703,1530.7 722.34,1541.97C688.977,1553.24 652.007,1558.88 611.43,1558.88Z" style="fill:rgb(35,31,32);fill-rule:nonzero;"/>
        </g>
        <g transform="matrix(1,0,0,0.882431,26.4324,181.368)">
            <rect x="1105.11" y="518.759" width="177.185" height="1023.88" style="fill:rgb(35,31,32);fill-rule:nonzero;"/>
        </g>
        <g transform="matrix(1,0,0,1,21.808,9.9476e-14)">
            <path d="M1713.76,1550.76C1630.81,1550.76 1566.56,1527.99 1521.03,1482.46C1475.49,1436.92 1452.72,1372.67 1452.72,1289.72L1452.72,965.103L1325.58,965.103L1325.58,806.854L1339.11,806.854C1375.17,806.854 1403.13,797.386 1422.96,778.45C1442.8,759.514 1452.72,732.012 1452.72,695.944L1452.72,639.137L1629.9,639.137L1629.9,806.854L1798.98,806.854L1798.98,965.103L1629.9,965.103L1629.9,1280.25C1629.9,1304.6 1634.19,1325.33 1642.76,1342.47C1651.32,1359.6 1664.85,1372.67 1683.33,1381.69C1701.82,1390.71 1725.49,1395.22 1754.34,1395.22C1760.65,1395.22 1768.09,1394.77 1776.66,1393.86C1785.22,1392.96 1793.57,1392.06 1801.68,1391.16L1801.68,1542.64C1789.06,1544.45 1774.63,1546.25 1758.4,1548.06C1742.17,1549.86 1727.29,1550.76 1713.76,1550.76Z" style="fill:rgb(35,31,32);fill-rule:nonzero;"/>
        </g>
        <g transform="matrix(1,0,0,1,16.2771,0)">
            <path d="M2089.78,1558.88C2038.38,1558.88 1993.74,1550.31 1955.87,1533.18C1918,1516.04 1888.69,1491.47 1867.95,1459.46C1847.22,1427.45 1836.85,1390.26 1836.85,1347.88C1836.85,1307.3 1845.86,1271.01 1863.9,1239C1881.93,1206.99 1909.88,1180.16 1947.76,1158.52C1985.63,1136.88 2033.42,1121.55 2091.13,1112.53L2331.88,1073.31L2331.88,1208.56L2124.94,1243.73C2089.78,1250.04 2063.62,1261.31 2046.49,1277.54C2029.36,1293.77 2020.79,1314.96 2020.79,1341.11C2020.79,1366.36 2030.49,1386.42 2049.87,1401.3C2069.26,1416.18 2093.38,1423.62 2122.24,1423.62C2159.21,1423.62 2191.89,1415.73 2220.3,1399.95C2248.7,1384.17 2270.79,1362.3 2286.57,1334.35C2302.35,1306.4 2310.24,1275.74 2310.24,1242.38L2310.24,1053.02C2310.24,1021.46 2297.84,995.085 2273.05,973.894C2248.25,952.704 2215.56,942.109 2174.99,942.109C2137.11,942.109 2103.53,952.254 2074.22,972.542C2044.91,992.83 2023.5,1019.66 2009.97,1053.02L1865.25,982.686C1879.68,943.913 1902.44,910.324 1933.55,881.921C1964.66,853.517 2001.41,831.2 2043.79,814.969C2086.17,798.738 2132.16,790.623 2181.75,790.623C2242.16,790.623 2295.36,801.669 2341.35,823.761C2387.34,845.852 2423.18,876.51 2448.88,915.735C2474.58,954.959 2487.43,1000.72 2487.43,1053.02L2487.43,1542.64L2319.71,1542.64L2319.71,1416.86L2357.58,1414.15C2338.64,1445.71 2316.1,1472.09 2289.95,1493.28C2263.8,1514.47 2234.05,1530.7 2200.68,1541.97C2167.32,1553.24 2130.35,1558.88 2089.78,1558.88Z" style="fill:rgb(35,31,32);fill-rule:nonzero;"/>
        </g>
        <g transform="matrix(1,0,0,1,-10.0402,-8.11534)">
            <path d="M2583.46,1542.64L2583.46,806.854L2749.82,806.854L2749.82,970.513L2736.3,946.167C2753.43,891.163 2780.26,852.841 2816.77,831.2C2853.29,809.559 2897.25,798.738 2948.65,798.738L2991.93,798.738L2991.93,955.635L2928.36,955.635C2877.86,955.635 2837.29,971.189 2806.63,1002.3C2775.97,1033.41 2760.64,1076.91 2760.64,1132.82L2760.64,1542.64L2583.46,1542.64Z" style="fill:rgb(35,31,32);fill-rule:nonzero;"/>
        </g>
    </g>
</svg>
